<svg width="20" height="21" viewBox="0 0 20 21" fill="none" xmlns="http://www.w3.org/2000/svg">
<path d="M12 10.002L8 6.00196V9.00196H0V11.002H8V14.002L12 10.002ZM20 10.002C20.0005 12.3915 19.1453 14.7022 17.5893 16.5156C16.0333 18.3291 13.8794 19.5255 11.5175 19.8881C9.15569 20.2507 6.74208 19.7556 4.71373 18.4924C2.68538 17.2293 1.17639 15.2816 0.46 13.002H2.59C3.2862 14.723 4.55932 16.1484 6.19117 17.0337C7.82301 17.9191 9.71198 18.2093 11.5343 17.8547C13.3567 17.5 14.999 16.5226 16.1797 15.0899C17.3605 13.6572 18.0062 11.8585 18.0062 10.002C18.0062 8.14541 17.3605 6.34667 16.1797 4.91399C14.999 3.48131 13.3567 2.5039 11.5343 2.14926C9.71198 1.79463 7.82301 2.08486 6.19117 2.97021C4.55932 3.85555 3.2862 5.28089 2.59 7.00196H0.46C1.17639 4.72236 2.68538 2.77464 4.71373 1.51148C6.74208 0.24832 9.15569 -0.246777 11.5175 0.115839C13.8794 0.478455 16.0333 1.67481 17.5893 3.48828C19.1453 5.30175 20.0005 7.61244 20 10.002Z" fill="#FF0000"/>
</svg>
