<svg width="27" height="27" viewBox="0 0 27 27" fill="none" xmlns="http://www.w3.org/2000/svg">
<path d="M16.9277 0H10.0723C7.16288 0 4.08957 0.773664 2.25 2.72864C0.575185 4.50853 0 7.34459 0 9.96529V16.7479C0 19.3686 0.575194 22.2047 2.25002 23.9846C4.08959 25.9396 7.16289 26.7132 10.0723 26.7132H16.9277C19.8371 26.7132 22.9104 25.9396 24.75 23.9846C26.4248 22.2047 27 19.3686 27 16.7479V9.96529C27 7.3446 26.4248 4.50853 24.75 2.72864C22.9104 0.773667 19.8371 0 16.9277 0ZM10.167 5.98586C11.0464 5.13669 12.1593 4.69139 13.5056 4.64997C14.7976 4.64997 15.8968 5.08232 16.8034 5.94703C17.7099 6.81174 18.1795 7.87579 18.2121 9.13918C18.1795 10.413 17.7235 11.4719 16.8441 12.3159C15.9646 13.1599 14.8518 13.5974 13.5056 13.6284C12.1593 13.5974 11.0464 13.1599 10.167 12.3159C9.28758 11.4719 8.82615 10.4181 8.78275 9.15474C8.8262 7.89136 9.28762 6.83507 10.167 5.98586ZM15.5249 17.4032C15.7747 17.6413 16.0298 17.8847 16.2904 18.1333C16.8549 18.6717 17.4249 19.2154 18.0003 19.7642C18.4781 20.2717 18.5649 20.8154 18.2609 21.3953C18.1503 21.5714 18.0013 21.7202 17.825 21.8305C17.6488 21.9408 17.4498 22.0097 17.2431 22.0322C16.8142 22.084 16.4207 21.9545 16.0624 21.6439C15.4978 21.1053 14.9333 20.5616 14.3687 20.0128C14.119 19.7746 13.8638 19.5364 13.6033 19.2982C13.571 19.2783 13.5433 19.2518 13.5218 19.2206C13.5067 19.2024 13.4956 19.1812 13.4893 19.1585C13.4785 19.1792 13.4676 19.1999 13.4567 19.2206C13.4532 19.2337 13.447 19.246 13.4386 19.2566C13.4302 19.2673 13.4198 19.2762 13.4078 19.2827C12.5827 20.0801 11.7576 20.8724 10.9324 21.6594C10.6662 21.9177 10.31 22.0626 9.93904 22.0632C9.75397 22.0623 9.57093 22.0248 9.40043 21.9528C9.22994 21.8808 9.07538 21.7758 8.94565 21.6439C8.70685 21.4104 8.5694 21.0923 8.56293 20.7584C8.55857 20.4241 8.68409 20.1011 8.91308 19.8575L9.09217 19.6866C9.10308 19.6763 9.11394 19.6659 9.12475 19.6556C9.43959 19.3553 9.75444 19.055 10.0693 18.7546C10.547 18.299 11.0193 17.8433 11.4861 17.3877C11.5102 17.3757 11.5322 17.3599 11.5513 17.341C11.5646 17.3273 11.5756 17.3116 11.5839 17.2944C10.8799 17.1434 10.1965 16.9087 9.5482 16.5954C9.3202 16.4815 9.09764 16.3572 8.88054 16.2226C8.55479 16.0155 8.3485 15.7463 8.26166 15.4149C8.21907 15.2477 8.2101 15.0738 8.23526 14.9031C8.26042 14.7324 8.31922 14.5685 8.40824 14.4207C8.60979 14.1207 8.9187 13.9094 9.27136 13.8304C9.62414 13.7468 9.99537 13.7966 10.3136 13.9702C10.9584 14.3509 11.6634 14.6188 12.3982 14.7625C13.8856 15.0213 15.2699 14.7883 16.551 14.0634C16.8093 13.8984 17.1077 13.8071 17.4141 13.7993C18.0655 13.8304 18.4998 14.1359 18.717 14.7158C18.8907 15.3372 18.7061 15.8343 18.1632 16.2071C17.3496 16.6936 16.4649 17.05 15.5413 17.2634C15.5221 17.2761 15.499 17.2816 15.4761 17.2789C15.4559 17.2889 15.4336 17.2942 15.411 17.2944V17.31C15.4511 17.3383 15.4892 17.3695 15.5249 17.4032Z" fill="#67BC5E"/>
<path d="M13.473 11.0034C14.0375 10.993 14.5044 10.8144 14.8735 10.4674C15.0543 10.3001 15.1983 10.097 15.2964 9.87102C15.3945 9.64506 15.4446 9.40117 15.4435 9.15483C15.4444 8.90813 15.395 8.66384 15.2984 8.43684C15.2018 8.20984 15.06 8.00488 14.8817 7.83445C14.518 7.4824 14.0593 7.30119 13.5056 7.29082C12.9977 7.28738 12.508 7.47924 12.1376 7.82672C11.9576 7.99237 11.813 8.19263 11.7122 8.4155C11.6115 8.63838 11.5567 8.87929 11.5513 9.12382C11.5731 9.66232 11.7631 10.1076 12.1213 10.4597C12.4796 10.8118 12.9301 10.993 13.473 11.0034Z" fill="#67BC5E"/>
</svg>
