<svg width="16" height="17" viewBox="0 0 16 17" fill="none" xmlns="http://www.w3.org/2000/svg">
<path d="M8 0.00195312C9.06087 0.00195313 10.0783 0.42338 10.8284 1.17353C11.5786 1.92367 12 2.94109 12 4.00195C12 5.06282 11.5786 6.08024 10.8284 6.83038C10.0783 7.58053 9.06087 8.00195 8 8.00195C6.93913 8.00195 5.92172 7.58053 5.17157 6.83038C4.42143 6.08024 4 5.06282 4 4.00195C4 2.94109 4.42143 1.92367 5.17157 1.17353C5.92172 0.42338 6.93913 0.00195313 8 0.00195312ZM8 10.002C12.42 10.002 16 11.792 16 14.002V16.002H0V14.002C0 11.792 3.58 10.002 8 10.002Z" fill="#FF0000"/>
</svg>
