<svg width="27" height="27" viewBox="0 0 27 27" fill="none" xmlns="http://www.w3.org/2000/svg">
<path d="M20.2125 0.0107422H6.76606C3.04044 0.0107422 0 3.05119 0 6.7768V20.2447C0 23.9489 3.04044 26.9893 6.76606 26.9893H20.2339C23.9596 26.9893 27 23.9489 27 20.2233V6.7768C26.9786 3.05119 23.9381 0.0107422 20.2125 0.0107422ZM20.1911 10.117C20.1911 10.2669 20.1911 10.4168 20.1911 10.5667C20.1911 15.0631 16.7224 20.2447 10.3632 20.2447C8.41475 20.2447 6.59477 19.688 5.07454 18.7245C5.35289 18.7459 5.60983 18.7673 5.88818 18.7673C7.51546 18.7673 8.99286 18.232 10.1705 17.3113C8.65028 17.2899 7.38699 16.305 6.93735 14.956C7.15147 14.9988 7.36558 15.0203 7.5797 15.0203C7.90087 15.0203 8.22205 14.9774 8.5004 14.8918C6.95876 14.5706 5.78113 13.2003 5.78113 11.5516V11.5088C6.20936 11.7657 6.76606 11.9156 7.32276 11.937C6.40206 11.3375 5.78113 10.2883 5.78113 9.11066C5.78113 8.48973 5.95242 7.91162 6.25218 7.39774C7.96511 9.45325 10.4917 10.8022 13.3608 10.9521C13.2966 10.6951 13.2752 10.4382 13.2752 10.1812C13.2752 8.29702 14.8168 6.7768 16.7224 6.7768C17.7074 6.7768 18.6067 7.18362 19.249 7.84738C20.0412 7.6975 20.7692 7.41915 21.433 7.01233C21.1761 7.80456 20.6194 8.46832 19.9128 8.89655C20.6194 8.8109 21.2831 8.63961 21.904 8.36126C21.433 9.04643 20.8549 9.64595 20.1911 10.117Z" fill="#67BC5E"/>
</svg>
