<svg width="27" height="27" viewBox="0 0 27 27" fill="none" xmlns="http://www.w3.org/2000/svg">
<path d="M21.686 17.8725L19.1196 15.0127C19.0403 14.9243 18.9776 14.8444 18.9225 14.7613C18.407 13.9833 18.4773 13.0223 19.1105 12.1905C19.2145 12.054 19.3234 11.9017 19.4533 11.7111L21.2304 9.10374C21.3074 8.96446 21.3611 8.85072 21.3984 8.75964H19.7883C19.5524 8.75964 19.4027 8.85156 19.3433 9.03281C19.3338 9.08565 19.3256 9.09946 19.3029 9.1532C18.1077 11.9839 16.6357 13.3041 16.2617 13.6077C16.0178 13.8807 15.7045 14.0338 15.3686 14.0414C14.7872 14.0544 14.3989 13.6316 14.3273 13.5467C14.2069 13.404 14.1409 13.2233 14.1409 13.0367V8.7781C14.1409 8.77172 14.1408 8.7656 14.1407 8.7597H11.7757C12.0583 9.40817 12.0341 10.005 12.0132 10.2173V14.1066C12.0132 14.3481 11.903 14.5762 11.7139 14.7263C11.5247 14.8764 11.2774 14.9319 11.0424 14.8769C9.94588 14.6211 8.88439 13.4214 7.79738 11.2095C7.32519 10.2487 6.95985 9.321 6.75202 8.7597H5.10566C4.9301 8.7597 4.83323 8.78237 4.78656 8.7984C4.78767 8.82256 4.79083 8.84713 4.79094 8.84739C4.7922 8.85114 4.79347 8.85488 4.79468 8.85863C6.02402 12.6271 7.67772 14.8219 8.84858 15.9994C10.0758 17.2336 11.0413 17.6365 11.0979 17.6594C11.1238 17.6687 11.1397 17.676 11.1651 17.6883C12.3098 18.2447 12.837 18.2432 13.7135 18.2399C13.781 18.2396 13.85 18.2394 13.9206 18.2394C14.0286 18.2394 14.0939 18.2245 14.1242 18.2134V16.0007C14.1242 15.7777 14.2183 15.5652 14.3832 15.4153C15.2734 14.6061 16.3478 15.0164 16.7916 15.3464C16.8174 15.3656 16.842 15.3863 16.8653 15.4084L19.3282 17.7549C19.6936 18.0676 20.1604 18.2394 20.6436 18.2394H21.9949C21.9085 18.1214 21.8066 17.998 21.707 17.8951C21.7003 17.8881 21.6925 17.8798 21.686 17.8725Z" fill="#67BC5E"/>
<path d="M19.4896 0H7.51043C3.3692 0 0 3.36915 0 7.51043V19.4896C0 23.6309 3.3692 27 7.51043 27H19.4896C23.6308 27 27 23.6309 27 19.4896V7.51043C27 3.36915 23.6308 0 19.4896 0V0ZM23.704 19.0579C23.557 19.4062 23.1898 19.8215 22.2747 19.8215H20.6437C19.7836 19.8215 18.9515 19.5147 18.3005 18.9577L18.2828 18.9426C18.272 18.9333 18.2614 18.9238 18.2511 18.914L15.8243 16.6018C15.7923 16.5825 15.7513 16.5613 15.7063 16.5466V18.2157C15.7088 18.3717 15.6831 18.88 15.2796 19.3034C15.0545 19.5397 14.6359 19.8215 13.9206 19.8215C13.8518 19.8215 13.7848 19.8217 13.7191 19.822C13.6554 19.8222 13.5921 19.8224 13.5293 19.8224C12.6616 19.8224 11.8602 19.7806 10.501 19.1245C10.0024 18.9225 5.79234 17.0141 3.29221 9.35408C3.16348 8.97265 3.13727 8.35824 3.48516 7.87124C3.71113 7.55483 4.17577 7.17768 5.10564 7.17768H7.30999C7.65044 7.17768 7.95277 7.39552 8.0604 7.71852C8.06493 7.73212 8.52905 9.11435 9.22403 10.5257C9.69358 11.4793 10.0992 12.1104 10.4311 12.5281V10.1725C10.4311 10.1284 10.4314 10.1049 10.4386 10.063C10.4449 9.99817 10.4838 9.46561 10.0972 9.04031C10.0298 8.96616 9.97708 8.87984 9.94185 8.78602C9.84382 8.52456 9.827 8.11814 10.0741 7.7616C10.3426 7.37406 10.8197 7.17762 11.4919 7.17762H14.4597C14.4972 7.17762 14.5345 7.18026 14.5716 7.18559C15.1261 7.26479 15.7229 7.79694 15.7229 8.77806V11.9517C16.2998 11.3384 17.1291 10.2177 17.8248 8.58626C17.9815 8.05639 18.5557 7.17762 19.7882 7.17762H21.9039C21.9252 7.17762 21.9465 7.17847 21.9677 7.18021C22.2753 7.2051 22.685 7.38392 22.9123 7.81117C23.3303 8.59671 22.7757 9.58337 22.5935 9.90758C22.5823 9.92735 22.5704 9.94671 22.5575 9.96548L20.7605 12.602C20.6147 12.816 20.4903 12.9898 20.3692 13.1489C20.1501 13.4366 20.107 13.685 20.241 13.8872C20.2521 13.9038 20.2708 13.927 20.2968 13.9559L22.8541 16.8056C22.9145 16.8687 23.1416 17.1125 23.3526 17.4195C23.5125 17.652 23.9987 18.3594 23.704 19.0579Z" fill="#67BC5E"/>
</svg>
